<svg width="472" height="454" viewBox="0 0 472 454" fill="none" xmlns="http://www.w3.org/2000/svg">
<rect width="472" height="454" fill="#160E0B"/>
<rect x="181.633" y="157.114" width="20.9628" height="115.143" rx="7" fill="#FCF3E1"/>
<path d="M156.409 239.765C153.341 236.414 153.502 231.214 156.771 228.06L161.978 223.037C165.192 219.937 170.265 219.925 173.491 223.012L180.934 230.132L206.17 259.614C208.916 262.823 208.846 267.588 206.006 270.715L201.272 275.926C198.495 278.983 193.855 279.405 190.578 276.898V276.898C190.205 276.613 189.859 276.296 189.542 275.95L156.409 239.765Z" fill="#FCF3E1"/>
<path d="M236.052 141.264C237.846 137.928 241.964 136.635 245.344 138.347L250.758 141.09C254.182 142.824 255.581 146.998 253.894 150.447L231.779 195.646L210.928 236.241C208.226 241.502 200.634 241.225 198.296 235.78L193.824 225.367C192.978 223.397 193.076 221.149 194.089 219.265L236.052 141.264Z" fill="#FCF3E1"/>
<path d="M297.447 231.118C302.631 228.572 304.898 222.283 301.665 217.496C295.46 208.309 287.026 200.86 277.123 195.937C264.146 189.485 249.418 187.753 235.357 191.026C221.295 194.299 208.734 202.382 199.734 213.949C190.734 225.517 185.83 239.881 185.826 254.687C185.822 269.493 190.718 283.86 199.712 295.433C208.705 307.005 221.262 315.096 235.322 318.377C249.382 321.658 264.11 319.934 277.091 313.49C286.996 308.572 295.435 301.129 301.645 291.945C304.88 287.16 302.617 280.869 297.434 278.321V278.321C292.097 275.696 285.731 278.087 281.973 282.697C278.137 287.402 273.349 291.256 267.897 293.963C259.228 298.266 249.392 299.417 240.003 297.226C230.613 295.035 222.228 289.632 216.221 281.904C210.215 274.175 206.946 264.581 206.948 254.693C206.951 244.806 210.226 235.213 216.236 227.488C222.247 219.763 230.635 214.365 240.026 212.179C249.417 209.994 259.252 211.15 267.918 215.459C273.37 218.169 278.155 222.025 281.989 226.733C285.744 231.344 292.109 233.739 297.447 231.118V231.118Z" fill="#FCF3E1"/>
<path d="M263.751 254.071C268.123 253.417 272.683 255.545 271.668 259.848C269.497 269.051 258.807 280.683 248.714 280.683C235.593 280.683 224.956 269.681 224.956 256.11C224.956 242.538 238.932 226.622 248.015 233.643C257.577 241.969 242.134 257.306 263.751 254.071Z" fill="#FCF3E1"/>
<path d="M245.919 189.411C247.317 196.432 242.112 202.048 234.78 202.048C227.447 202.048 221.503 196.39 221.503 189.411C221.503 182.431 235.093 170.454 242.425 170.454C241.726 185.198 224.257 190.113 245.919 189.411Z" fill="#FCF3E1"/>
<path d="M210.242 216.792C211.639 223.813 206.435 229.43 199.102 229.43C191.77 229.43 185.826 223.772 185.826 216.792C185.826 209.813 199.415 197.836 206.748 197.836C206.049 212.58 188.58 217.494 210.242 216.792Z" fill="#FCF3E1"/>
</svg>
