<svg width="300" height="300" viewBox="0 0 300 300" fill="none" xmlns="http://www.w3.org/2000/svg">
<rect width="300" height="300" fill="#160E0B"/>
<path d="M90.4091 171H64.532V94.6364H90.9311C98.5128 94.6364 105.026 96.1651 110.469 99.2227C115.938 102.255 120.139 106.618 123.072 112.31C126.006 118.003 127.472 124.814 127.472 132.744C127.472 140.698 125.993 147.534 123.035 153.251C120.102 158.969 115.864 163.356 110.32 166.414C104.802 169.471 98.1648 171 90.4091 171ZM78.3654 159.031H89.7379C95.0575 159.031 99.4947 158.061 103.049 156.123C106.604 154.159 109.276 151.238 111.066 147.36C112.856 143.457 113.751 138.585 113.751 132.744C113.751 126.902 112.856 122.055 111.066 118.202C109.276 114.324 106.629 111.428 103.124 109.514C99.6438 107.575 95.3185 106.605 90.1481 106.605H78.3654V159.031Z" fill="#FCF3E1"/>
<rect x="149" y="94" width="97" height="95" fill="#FCF3E1"/>
<path d="M170.532 180V103.636H199.765C205.283 103.636 209.87 104.506 213.524 106.246C217.203 107.962 219.95 110.311 221.764 113.294C223.604 116.277 224.523 119.657 224.523 123.436C224.523 126.543 223.927 129.203 222.734 131.415C221.54 133.603 219.937 135.38 217.924 136.747C215.91 138.114 213.661 139.096 211.175 139.693V140.439C213.884 140.588 216.482 141.42 218.968 142.937C221.478 144.428 223.529 146.541 225.12 149.276C226.711 152.01 227.506 155.316 227.506 159.194C227.506 163.146 226.549 166.701 224.635 169.858C222.721 172.99 219.838 175.463 215.985 177.278C212.132 179.093 207.284 180 201.443 180H170.532ZM184.365 168.441H199.243C204.264 168.441 207.881 167.484 210.093 165.57C212.331 163.631 213.449 161.145 213.449 158.113C213.449 155.85 212.89 153.812 211.771 151.998C210.653 150.158 209.062 148.716 206.999 147.672C204.935 146.603 202.474 146.069 199.616 146.069H184.365V168.441ZM184.365 136.113H198.05C200.436 136.113 202.586 135.678 204.5 134.808C206.414 133.913 207.918 132.658 209.012 131.042C210.131 129.402 210.69 127.463 210.69 125.225C210.69 122.267 209.646 119.831 207.558 117.917C205.495 116.003 202.425 115.046 198.348 115.046H184.365V136.113Z" fill="#160E0B"/>
<rect x="43" y="174" width="97" height="15" fill="#FCF3E1"/>
</svg>
